<svg width="16" height="16" viewBox="0 0 16 16" fill="none" xmlns="http://www.w3.org/2000/svg">
<path d="M10.6668 7.99998C10.6671 8.15575 10.6128 8.3067 10.5134 8.42665L7.1801 12.4266C7.06694 12.5628 6.90434 12.6484 6.72805 12.6647C6.55177 12.6809 6.37625 12.6265 6.2401 12.5133C6.10396 12.4002 6.01834 12.2375 6.00209 12.0613C5.98584 11.885 6.04028 11.7095 6.15344 11.5733L9.1401 7.99998L6.2601 4.42665C6.20472 4.35845 6.16337 4.27999 6.13842 4.19576C6.11346 4.11154 6.1054 4.02321 6.11469 3.93586C6.12398 3.84851 6.15045 3.76385 6.19256 3.68676C6.23468 3.60967 6.29162 3.54166 6.3601 3.48664C6.42865 3.42559 6.50907 3.37935 6.59632 3.35082C6.68357 3.3223 6.77577 3.31209 6.86714 3.32086C6.95852 3.32962 7.0471 3.35716 7.12734 3.40174C7.20757 3.44633 7.27774 3.50701 7.33344 3.57998L10.5534 7.57998C10.6371 7.70337 10.677 7.85124 10.6668 7.99998Z" fill="#808384"/>
</svg>
