<svg width="22" height="21" viewBox="0 0 22 21" fill="none" xmlns="http://www.w3.org/2000/svg">
<g clip-path="url(#clip0)">
<path d="M21.4837 9.02576L20.4959 7.7428C20.4735 7.63026 20.4735 7.40518 20.4735 7.27013C20.4735 7.20261 20.4735 7.1576 20.4735 7.09007V5.46949C20.4735 4.41161 19.7551 3.5338 18.5877 3.19618L16.9714 2.72351C16.8143 2.67849 16.6796 2.58846 16.5898 2.45341L15.6469 1.05792C15.0408 0.157594 13.8735 -0.225043 12.8408 0.135086L11.2469 0.697787C11.0898 0.742803 10.9102 0.742803 10.7755 0.697787L9.18163 0.135086C8.12652 -0.225043 6.95918 0.157594 6.35305 1.05792L5.38775 2.43091C5.29795 2.56595 5.16326 2.65599 5.02856 2.701L3.34489 3.06113C3.32244 3.06113 3.29999 3.06113 3.27754 3.08364C2.19999 3.39875 1.48163 4.3666 1.50408 5.46949V7.13509C1.50408 7.20261 1.50408 7.24763 1.50408 7.31515C1.50408 7.4502 1.50408 7.63026 1.48163 7.7203L0.493872 9.02576C-0.179598 9.90358 -0.179598 11.119 0.493872 11.9968L1.50408 13.2798C1.52652 13.3473 1.52652 13.5499 1.52652 13.7074C1.52652 13.775 1.52652 13.865 1.52652 13.9325V15.5981C1.50408 16.6335 2.22244 17.4663 3.41224 17.8264L5.02856 18.2991C5.18571 18.3441 5.3204 18.4341 5.4102 18.5692L6.35305 19.9647C6.82448 20.6399 7.5653 21.0225 8.35101 21.0225C8.6204 21.0225 8.88979 20.9775 9.15918 20.8875L10.7531 20.3248C10.9102 20.2798 11.0898 20.2798 11.2245 20.3248L12.8184 20.8875C13.0877 20.9775 13.3571 21.0225 13.6265 21.0225C14.4122 21.0225 15.1755 20.6399 15.6245 19.9647L16.5673 18.5692C16.6571 18.4341 16.7918 18.3441 16.949 18.2991L18.5653 17.8264C19.6204 17.5113 20.4735 16.3184 20.451 15.193C20.4286 14.7203 20.0469 14.3377 19.5755 14.3602C19.1041 14.3827 18.7224 14.7653 18.7449 15.238C18.7449 15.5756 18.4082 16.0933 18.1163 16.1608L16.5 16.6335C15.9612 16.791 15.4898 17.1287 15.1755 17.6013L14.2326 18.9968C14.0531 19.2669 13.7163 19.3795 13.402 19.2669L11.8082 18.6817C11.2918 18.5016 10.7082 18.5016 10.1694 18.6817L8.5755 19.2444C8.26122 19.357 7.92448 19.2444 7.74489 18.9743L6.80203 17.5788C6.48775 17.1061 6.01632 16.7685 5.47754 16.611L3.86122 16.1383C3.79387 16.1158 3.2102 15.9357 3.23265 15.6206V15.5981V13.91C3.23265 13.8425 3.23265 13.775 3.23265 13.7074C3.23265 13.2573 3.2551 12.6946 2.87346 12.2219L1.86326 10.9164C1.66122 10.6688 1.66122 10.3087 1.86326 10.0611L2.87346 8.75567C3.2551 8.26049 3.23265 7.67528 3.23265 7.27013C3.23265 7.22512 3.23265 7.1801 3.23265 7.13509V5.44698V5.42448C3.23265 5.13187 3.43469 4.83927 3.74897 4.74923L5.43265 4.38911C5.4551 4.38911 5.47754 4.38911 5.49999 4.3666C6.03877 4.20904 6.5102 3.87142 6.82448 3.39875L7.76734 2.02576C7.94693 1.75567 8.28367 1.64312 8.59795 1.75566L10.1918 2.31837C10.7082 2.49843 11.2918 2.49843 11.8306 2.31837L13.4245 1.75566C13.7388 1.64312 14.0755 1.75567 14.2551 2.02576L15.198 3.42126C15.5122 3.89393 15.9837 4.23155 16.5224 4.38911L18.1388 4.86177C18.3857 4.9293 18.7673 5.10936 18.7673 5.46949V7.09007C18.7673 7.13509 18.7673 7.20261 18.7673 7.24763C18.7673 7.7428 18.7449 8.37303 19.149 8.80068L20.1367 10.0836C20.3388 10.3312 20.3388 10.6914 20.1367 10.9389C19.8449 11.3216 19.9122 11.8618 20.2939 12.1544C20.6755 12.447 21.2143 12.3795 21.5061 11.9968C22.1796 11.119 22.1796 9.90358 21.4837 9.02576Z" fill="#FF3A24"/>
<path d="M8.35101 15.5756C8.4857 15.6432 8.6204 15.6882 8.75509 15.6882C9.06937 15.6882 9.36121 15.5306 9.51835 15.238L14.1653 6.61745C14.3898 6.18979 14.2326 5.67211 13.8286 5.44703C13.402 5.22195 12.8857 5.37951 12.6612 5.78465L7.99182 14.4052C7.76733 14.8329 7.92448 15.3506 8.35101 15.5756Z" fill="#FF3A24"/>
<path d="M9.58572 7.49524C9.58572 6.30232 8.62041 5.33447 7.43061 5.33447C6.24082 5.33447 5.27551 6.30232 5.27551 7.49524C5.27551 8.68817 6.24082 9.65602 7.43061 9.65602C8.62041 9.65602 9.58572 8.68817 9.58572 7.49524ZM7.43061 7.9229C7.18368 7.9229 7.00408 7.72032 7.00408 7.49524C7.00408 7.27016 7.20612 7.06759 7.43061 7.06759C7.67755 7.06759 7.85715 7.27016 7.85715 7.49524C7.85715 7.72032 7.67755 7.9229 7.43061 7.9229Z" fill="#FF3A24"/>
<path d="M14.5245 15.6882C15.7143 15.6882 16.6796 14.7204 16.6796 13.5275C16.6796 12.3345 15.7143 11.3667 14.5245 11.3667C13.3347 11.3667 12.3694 12.3345 12.3694 13.5275C12.3694 14.7204 13.3347 15.6882 14.5245 15.6882ZM14.5245 13.0998C14.7714 13.0998 14.951 13.3024 14.951 13.5275C14.951 13.7526 14.7714 13.9551 14.5245 13.9551C14.2775 13.9551 14.098 13.7526 14.098 13.5275C14.098 13.3024 14.2775 13.0998 14.5245 13.0998Z" fill="#FF3A24"/>
</g>
<defs>
<clipPath id="clip0">
<rect width="22" height="21" fill="white"/>
</clipPath>
</defs>
</svg>
