<svg width="246" height="45" viewBox="0 0 246 45" fill="none" xmlns="http://www.w3.org/2000/svg">
<g opacity="0.5">
<g clip-path="url(#clip0)">
<path d="M219.576 0V6.79688H218.485V6.32812C218.242 6.5625 218.121 6.67969 217.758 6.79688C217.515 6.91406 217.152 6.91406 216.788 6.91406C216.303 6.91406 215.939 6.79688 215.576 6.5625C215.212 6.32812 214.97 6.09375 214.727 5.74219C214.485 5.39062 214.364 4.92188 214.364 4.45312C214.364 3.98438 214.485 3.51562 214.727 3.16406C214.97 2.8125 215.212 2.57812 215.576 2.34375C215.939 2.10938 216.424 1.99219 216.788 1.99219C217.152 1.99219 217.394 1.99219 217.636 2.10938C217.879 2.22656 218.121 2.34375 218.364 2.57812V0H219.576ZM217.758 5.85938C218 5.74219 218.121 5.625 218.242 5.39062C218.364 5.15625 218.485 4.92188 218.485 4.57031C218.485 4.33594 218.364 3.98438 218.242 3.75C218.121 3.51562 218 3.39844 217.758 3.28125C217.515 3.16406 217.273 3.04688 217.03 3.04688C216.788 3.04688 216.545 3.16406 216.303 3.28125C216.061 3.39844 215.939 3.51562 215.818 3.75C215.697 3.98438 215.576 4.21875 215.576 4.57031C215.576 4.92188 215.697 5.15625 215.818 5.39062C215.939 5.625 216.061 5.74219 216.303 5.85938C216.545 5.97656 216.788 6.09375 217.03 6.09375C217.273 5.97656 217.515 5.97656 217.758 5.85938Z" fill="#A6A9AA"/>
<path d="M225.515 4.92194H221.758C221.879 5.2735 222 5.50787 222.242 5.74225C222.485 5.97662 222.849 6.09381 223.333 6.09381C223.818 6.09381 224.303 5.97662 224.667 5.62506L225.273 6.32819C225.03 6.56256 224.788 6.79694 224.424 6.91412C224.061 7.03131 223.697 7.1485 223.333 7.1485C222.849 7.1485 222.364 7.03131 221.879 6.79694C221.515 6.56256 221.152 6.32819 220.909 5.97662C220.667 5.62506 220.545 5.15631 220.545 4.68756C220.545 4.21881 220.667 3.86725 220.909 3.3985C221.152 3.04694 221.394 2.69537 221.758 2.57819C222.121 2.34381 222.606 2.22662 223.091 2.22662C223.576 2.22662 223.939 2.34381 224.303 2.57819C224.667 2.81256 224.909 3.04694 225.152 3.3985C225.394 3.75006 225.515 4.21881 225.515 4.68756C225.636 4.68756 225.636 4.68756 225.515 4.92194ZM222.242 3.28131C222 3.51569 221.879 3.75006 221.758 4.10162H224.545C224.545 3.75006 224.303 3.51569 224.061 3.28131C223.818 3.04694 223.455 2.92975 223.091 2.92975C222.727 3.04694 222.485 3.16412 222.242 3.28131Z" fill="#A6A9AA"/>
<path d="M227.091 6.79694C226.727 6.67975 226.364 6.56256 226.242 6.44537L226.727 5.62506C226.97 5.74225 227.212 5.85944 227.576 5.97662C227.939 6.09381 228.182 6.09381 228.424 6.09381C229.152 6.09381 229.394 5.97662 229.394 5.62506C229.394 5.50787 229.273 5.39069 229.152 5.2735C229.03 5.15631 228.667 5.15631 228.303 5.03912C227.939 4.92194 227.576 4.92194 227.333 4.80475C227.091 4.68756 226.848 4.57037 226.727 4.45319C226.485 4.21881 226.485 3.98444 226.485 3.63287C226.485 3.16412 226.727 2.81256 227.091 2.57819C227.455 2.34381 227.939 2.22662 228.667 2.22662C229.03 2.22662 229.273 2.22662 229.636 2.34381C230 2.461 230.242 2.461 230.485 2.69537L230 3.51569C229.636 3.28131 229.152 3.16412 228.667 3.16412C228.303 3.16412 228.061 3.16412 227.939 3.28131C227.818 3.3985 227.697 3.51569 227.697 3.63287C227.697 3.86725 227.818 3.98444 227.939 3.98444C228.182 4.10162 228.424 4.10162 228.788 4.21881C229.152 4.21881 229.515 4.336 229.758 4.45319C230 4.57037 230.242 4.68756 230.364 4.80475C230.485 5.03912 230.606 5.2735 230.606 5.62506C230.606 6.09381 230.364 6.44537 230 6.67975C229.636 6.91412 229.03 7.03131 228.424 7.03131C227.818 6.91412 227.455 6.91412 227.091 6.79694Z" fill="#A6A9AA"/>
<path d="M231.455 1.17188C231.333 1.05469 231.212 0.9375 231.212 0.703125C231.212 0.46875 231.333 0.351562 231.455 0.234375C231.576 0.117188 231.818 0 231.939 0C232.182 0 232.303 0.117188 232.424 0.234375C232.546 0.351562 232.667 0.46875 232.667 0.703125C232.667 0.9375 232.546 1.05469 232.424 1.17188C232.303 1.28906 232.061 1.40625 231.939 1.40625C231.697 1.40625 231.576 1.28906 231.455 1.17188ZM231.333 2.22656H232.424V6.91406H231.333V2.22656Z" fill="#A6A9AA"/>
<path d="M238.848 2.22662V6.211C238.848 7.85162 238 8.67194 236.182 8.67194C235.697 8.67194 235.212 8.67194 234.848 8.55475C234.485 8.43756 234.121 8.32037 233.758 8.086L234.242 7.26569C234.485 7.38287 234.727 7.61725 235.091 7.61725C235.455 7.73444 235.697 7.73444 236.061 7.73444C236.545 7.73444 237.03 7.61725 237.273 7.38287C237.515 7.1485 237.636 6.79694 237.636 6.32819V6.09381C237.394 6.32819 237.152 6.44537 236.909 6.56256C236.667 6.67975 236.303 6.67975 235.939 6.67975C235.455 6.67975 235.091 6.56256 234.727 6.44537C234.364 6.211 234.121 5.97662 233.879 5.62506C233.636 5.2735 233.515 4.92194 233.515 4.45319C233.515 3.98444 233.636 3.63287 233.879 3.28131C234.121 2.92975 234.364 2.69537 234.727 2.461C235.091 2.22662 235.576 2.22662 235.939 2.22662C236.303 2.22662 236.667 2.22662 236.909 2.34381C237.152 2.461 237.394 2.57819 237.636 2.81256V2.22662H238.848ZM237.273 5.39069C237.515 5.15631 237.636 4.80475 237.636 4.45319C237.636 4.10162 237.515 3.75006 237.273 3.51569C237.03 3.28131 236.667 3.16412 236.182 3.16412C235.697 3.16412 235.333 3.28131 235.091 3.51569C234.848 3.75006 234.727 4.10162 234.727 4.45319C234.727 4.80475 234.848 5.15631 235.091 5.39069C235.333 5.62506 235.697 5.74225 236.182 5.74225C236.667 5.74225 237.03 5.62506 237.273 5.39069Z" fill="#A6A9AA"/>
<path d="M244.545 2.69537C244.909 3.04694 245.152 3.51569 245.152 4.21881V6.91412H243.939V4.336C243.939 3.86725 243.818 3.63287 243.697 3.3985C243.455 3.16412 243.212 3.04694 242.849 3.04694C242.485 3.04694 242.121 3.16412 241.879 3.3985C241.636 3.63287 241.515 3.98444 241.515 4.45319V6.79694H240.303V2.10944H241.394V2.69537C241.636 2.461 241.879 2.34381 242.121 2.22662C242.364 2.10944 242.727 2.10944 243.091 2.10944C243.697 2.10944 244.182 2.34381 244.545 2.69537Z" fill="#A6A9AA"/>
<path d="M90 3.39844V0H97.2727C101.03 0 103.818 2.10938 103.818 5.625V11.4844C103.818 13.8281 102.727 15.4688 100.667 16.4062C102.97 17.3438 104.061 18.9844 104.061 21.4453V28.3594C104.061 31.875 101.273 33.9844 97.6364 33.9844H90V30.4688H90.9697V3.39844H90ZM95.3333 14.7656H97.2727C98.4848 14.7656 99.4545 13.9453 99.4545 12.5391V5.50781C99.4545 4.21875 98.4848 3.39844 97.2727 3.39844H95.3333V14.7656ZM95.3333 18.1641V30.4688H97.3939C98.6061 30.4688 99.5758 29.6484 99.5758 28.2422V20.2734C99.5758 18.9844 98.6061 18.0469 97.3939 18.0469H95.3333V18.1641Z" fill="#A6A9AA"/>
<path d="M107.212 17.8125V11.25C108.909 10.0781 110.97 9.49219 113.636 9.49219C117.273 9.49219 120.061 11.6016 120.061 15.1172V30.4687H121.03V33.8672H115.697V31.875C114.485 33.3984 112.909 34.1016 110.97 34.1016C108.788 34.1016 107.091 32.5781 107.091 30.2344V25.3125C107.091 21.9141 109.273 20.1562 112.667 19.6875L115.697 19.3359V14.8828C115.697 13.5937 114.848 12.6562 113.636 12.6562C112.909 12.6562 112.182 12.8906 111.818 13.125L111.576 13.2422V17.5781H107.212V17.8125ZM115.697 22.8516L113.636 23.0859C112.182 23.2031 111.455 24.0234 111.455 25.3125V29.0625C111.455 30 112.061 30.7031 112.909 30.7031C114.364 30.7031 115.697 29.6484 115.697 27.8906V22.8516Z" fill="#A6A9AA"/>
<path d="M123.576 17.8126V9.72662H136.303V11.7188L128.667 30.4688H133.03V25.7813H136.424V33.8673H123.576V31.8751L131.333 13.0079H126.849V17.6954H123.576V17.8126Z" fill="#A6A9AA"/>
<path d="M139.212 33.8672V30.4688H140.182V13.125H139.212V9.72656H144.545V30.4688H145.515V33.8672H139.212ZM140.303 5.27344V0H144.667V5.27344H140.303Z" fill="#A6A9AA"/>
<path d="M148.182 3.39844V0H153.515V30.4688H154.485V33.8672H148.182V30.4688H149.152V3.39844H148.182Z" fill="#A6A9AA"/>
<path d="M170.364 23.0859H161.758V28.4766C161.758 29.8828 162.606 30.7031 163.818 30.7031C165.03 30.7031 166 29.8828 166 28.4766V25.7813H170.364V28.5938C170.364 32.1094 167.576 34.2188 163.818 34.2188C160.182 34.2188 157.394 32.1094 157.394 28.5938V15C157.394 11.4844 160.182 9.375 163.818 9.375C167.455 9.375 170.364 11.4844 170.364 15V23.0859ZM161.758 19.8047H166V15.1172C166 13.7109 165.152 12.8906 163.818 12.8906C162.606 12.8906 161.758 13.7109 161.758 15.1172V19.8047Z" fill="#A6A9AA"/>
<path d="M182 13.1251V9.72662H188.303V13.1251H187.091L183.091 33.9844H177.394L173.394 13.1251H172.182V9.72662H177.273L180.182 30.3516H180.303L182.848 13.0079H182V13.1251Z" fill="#A6A9AA"/>
<path d="M198.606 13.4766C198 13.0079 197.394 12.8907 196.667 12.8907C195.576 12.8907 194.727 13.711 194.727 15.0001V17.5782C194.727 18.8672 196.788 19.8047 198.849 20.3907C201.03 20.9766 203.091 22.6172 203.091 25.3126V28.5938C203.091 31.9922 200.303 34.1016 196.667 34.1016C194.364 34.1016 192.061 33.2813 191.091 32.6954L190.364 32.2266V25.7813H194.727V30.1172C195.333 30.586 195.939 30.7032 196.788 30.7032C198 30.7032 198.849 29.8829 198.849 28.5938V25.3126C198.849 22.2657 190.485 23.4376 190.485 17.461V14.7657C190.485 11.4844 193.152 9.25787 196.788 9.25787C199.091 9.25787 201.394 10.0782 202.364 10.6641L203.091 11.1329V17.6954H198.727V13.4766H198.606Z" fill="#A6A9AA"/>
<path d="M206 33.8672V30.4688H206.97V3.39844H206V0H211.333V19.8047H212.667L215.091 13.125H214.242V9.72656H220.545V13.125H219.333L215.818 21.4453L219.455 30.5859H220.667V33.9844H216.182L212.667 23.0859H211.333V30.4688H212.303V33.8672H206Z" fill="#A6A9AA"/>
<path d="M231.212 13.1251V9.72662H236.545V39.4923C236.545 43.0079 233.758 45.1173 230.121 45.1173C227.818 45.1173 225.394 44.4141 224.424 43.711L223.697 43.2423V37.5001H228.061V41.0157C228.667 41.4844 229.273 41.6016 230.121 41.6016C231.212 41.6016 232.182 40.7813 232.182 39.3751V31.7579C230.97 33.2813 229.394 33.9844 227.576 33.9844C225.273 33.9844 223.576 32.461 223.576 30.0001V13.1251H222.606V9.72662H227.939V29.0626C227.939 30.1173 228.667 30.7032 229.515 30.7032C231.091 30.7032 232.182 29.6485 232.182 27.8907V13.1251H231.212Z" fill="#A6A9AA"/>
<path d="M239.576 33.8673V30.4688H240.667V13.1251H239.576V9.72662H245.03V30.4688H246V33.8673H239.576Z" fill="#A6A9AA"/>
</g>
<path d="M5.852 34.084C4.88133 34.084 4.004 33.8693 3.22 33.44C2.44533 33.0107 1.834 32.418 1.386 31.662C0.947333 30.8967 0.728 30.0427 0.728 29.1C0.728 28.1573 0.947333 27.308 1.386 26.552C1.834 25.7867 2.45 25.1893 3.234 24.76C4.018 24.3307 4.89533 24.116 5.866 24.116C6.594 24.116 7.266 24.2373 7.882 24.48C8.498 24.7227 9.02067 25.0773 9.45 25.544L8.792 26.202C8.02667 25.4273 7.06067 25.04 5.894 25.04C5.11933 25.04 4.41467 25.2173 3.78 25.572C3.14533 25.9267 2.646 26.412 2.282 27.028C1.92733 27.644 1.75 28.3347 1.75 29.1C1.75 29.8653 1.92733 30.556 2.282 31.172C2.646 31.788 3.14533 32.2733 3.78 32.628C4.41467 32.9827 5.11933 33.16 5.894 33.16C7.07 33.16 8.036 32.768 8.792 31.984L9.45 32.642C9.02067 33.1087 8.49333 33.468 7.868 33.72C7.252 33.9627 6.58 34.084 5.852 34.084ZM12.5405 28.078C12.7738 27.5833 13.1192 27.21 13.5765 26.958C14.0432 26.706 14.6172 26.58 15.2985 26.58V27.546L15.0605 27.532C14.2858 27.532 13.6792 27.77 13.2405 28.246C12.8018 28.722 12.5825 29.3893 12.5825 30.248V34H11.5885V26.636H12.5405V28.078ZM23.5819 30.626H17.4219C17.4779 31.3913 17.7719 32.012 18.3039 32.488C18.8359 32.9547 19.5079 33.188 20.3199 33.188C20.7772 33.188 21.1972 33.1087 21.5799 32.95C21.9626 32.782 22.2939 32.5393 22.5739 32.222L23.1339 32.866C22.8072 33.258 22.3966 33.5567 21.9019 33.762C21.4166 33.9673 20.8799 34.07 20.2919 34.07C19.5359 34.07 18.8639 33.9113 18.2759 33.594C17.6972 33.2673 17.2446 32.8193 16.9179 32.25C16.5912 31.6807 16.4279 31.0367 16.4279 30.318C16.4279 29.5993 16.5819 28.9553 16.8899 28.386C17.2072 27.8167 17.6366 27.3733 18.1779 27.056C18.7286 26.7387 19.3446 26.58 20.0259 26.58C20.7072 26.58 21.3186 26.7387 21.8599 27.056C22.4012 27.3733 22.8259 27.8167 23.1339 28.386C23.4419 28.946 23.5959 29.59 23.5959 30.318L23.5819 30.626ZM20.0259 27.434C19.3166 27.434 18.7192 27.6627 18.2339 28.12C17.7579 28.568 17.4872 29.156 17.4219 29.884H22.6439C22.5786 29.156 22.3032 28.568 21.8179 28.12C21.3419 27.6627 20.7446 27.434 20.0259 27.434ZM28.13 26.58C29.0914 26.58 29.8287 26.8227 30.342 27.308C30.8554 27.784 31.112 28.4933 31.112 29.436V34H30.16V32.852C29.936 33.2347 29.6047 33.5333 29.166 33.748C28.7367 33.9627 28.2234 34.07 27.626 34.07C26.8047 34.07 26.1514 33.874 25.666 33.482C25.1807 33.09 24.938 32.572 24.938 31.928C24.938 31.3027 25.162 30.7987 25.61 30.416C26.0674 30.0333 26.7907 29.842 27.78 29.842H30.118V29.394C30.118 28.7593 29.9407 28.2787 29.586 27.952C29.2314 27.616 28.7134 27.448 28.032 27.448C27.5654 27.448 27.1174 27.5273 26.688 27.686C26.2587 27.8353 25.89 28.0453 25.582 28.316L25.134 27.574C25.5074 27.2567 25.9554 27.014 26.478 26.846C27.0007 26.6687 27.5514 26.58 28.13 26.58ZM27.78 33.286C28.34 33.286 28.8207 33.16 29.222 32.908C29.6234 32.6467 29.922 32.2733 30.118 31.788V30.584H27.808C26.548 30.584 25.918 31.0227 25.918 31.9C25.918 32.3293 26.0814 32.67 26.408 32.922C26.7347 33.1647 27.192 33.286 27.78 33.286ZM37.8299 33.552C37.6432 33.72 37.4099 33.8507 37.1299 33.944C36.8592 34.028 36.5745 34.07 36.2759 34.07C35.5852 34.07 35.0532 33.8833 34.6799 33.51C34.3065 33.1367 34.1199 32.6093 34.1199 31.928V27.476H32.8039V26.636H34.1199V25.026H35.1139V26.636H37.3539V27.476H35.1139V31.872C35.1139 32.3107 35.2212 32.6467 35.4359 32.88C35.6599 33.104 35.9772 33.216 36.3879 33.216C36.5932 33.216 36.7892 33.1833 36.9759 33.118C37.1719 33.0527 37.3399 32.9593 37.4799 32.838L37.8299 33.552ZM45.9316 30.626H39.7716C39.8276 31.3913 40.1216 32.012 40.6536 32.488C41.1856 32.9547 41.8576 33.188 42.6696 33.188C43.1269 33.188 43.5469 33.1087 43.9296 32.95C44.3123 32.782 44.6436 32.5393 44.9236 32.222L45.4836 32.866C45.1569 33.258 44.7463 33.5567 44.2516 33.762C43.7663 33.9673 43.2296 34.07 42.6416 34.07C41.8856 34.07 41.2136 33.9113 40.6256 33.594C40.0469 33.2673 39.5943 32.8193 39.2676 32.25C38.9409 31.6807 38.7776 31.0367 38.7776 30.318C38.7776 29.5993 38.9316 28.9553 39.2396 28.386C39.5569 27.8167 39.9863 27.3733 40.5276 27.056C41.0783 26.7387 41.6943 26.58 42.3756 26.58C43.0569 26.58 43.6683 26.7387 44.2096 27.056C44.7509 27.3733 45.1756 27.8167 45.4836 28.386C45.7916 28.946 45.9456 29.59 45.9456 30.318L45.9316 30.626ZM42.3756 27.434C41.6663 27.434 41.0689 27.6627 40.5836 28.12C40.1076 28.568 39.8369 29.156 39.7716 29.884H44.9936C44.9283 29.156 44.6529 28.568 44.1676 28.12C43.6916 27.6627 43.0943 27.434 42.3756 27.434ZM54.8288 23.612V34H53.8768V32.544C53.5781 33.0387 53.1815 33.4167 52.6868 33.678C52.2015 33.9393 51.6508 34.07 51.0348 34.07C50.3441 34.07 49.7188 33.9113 49.1588 33.594C48.5988 33.2767 48.1601 32.8333 47.8428 32.264C47.5255 31.6947 47.3668 31.046 47.3668 30.318C47.3668 29.59 47.5255 28.9413 47.8428 28.372C48.1601 27.8027 48.5988 27.364 49.1588 27.056C49.7188 26.7387 50.3441 26.58 51.0348 26.58C51.6321 26.58 52.1688 26.706 52.6448 26.958C53.1301 27.2007 53.5268 27.56 53.8348 28.036V23.612H54.8288ZM51.1188 33.188C51.6321 33.188 52.0941 33.0713 52.5048 32.838C52.9248 32.5953 53.2515 32.2547 53.4848 31.816C53.7275 31.3773 53.8488 30.878 53.8488 30.318C53.8488 29.758 53.7275 29.2587 53.4848 28.82C53.2515 28.3813 52.9248 28.0453 52.5048 27.812C52.0941 27.5693 51.6321 27.448 51.1188 27.448C50.5961 27.448 50.1248 27.5693 49.7048 27.812C49.2941 28.0453 48.9675 28.3813 48.7248 28.82C48.4915 29.2587 48.3748 29.758 48.3748 30.318C48.3748 30.878 48.4915 31.3773 48.7248 31.816C48.9675 32.2547 49.2941 32.5953 49.7048 32.838C50.1248 33.0713 50.5961 33.188 51.1188 33.188ZM65.3352 26.58C66.0258 26.58 66.6512 26.7387 67.2112 27.056C67.7712 27.364 68.2098 27.8027 68.5272 28.372C68.8445 28.9413 69.0032 29.59 69.0032 30.318C69.0032 31.046 68.8445 31.6947 68.5272 32.264C68.2098 32.8333 67.7712 33.2767 67.2112 33.594C66.6512 33.9113 66.0258 34.07 65.3352 34.07C64.7192 34.07 64.1638 33.9393 63.6692 33.678C63.1838 33.4167 62.7918 33.0387 62.4932 32.544V34H61.5412V23.612H62.5352V28.036C62.8432 27.56 63.2352 27.2007 63.7112 26.958C64.1965 26.706 64.7378 26.58 65.3352 26.58ZM65.2652 33.188C65.7785 33.188 66.2452 33.0713 66.6652 32.838C67.0852 32.5953 67.4118 32.2547 67.6452 31.816C67.8878 31.3773 68.0092 30.878 68.0092 30.318C68.0092 29.758 67.8878 29.2587 67.6452 28.82C67.4118 28.3813 67.0852 28.0453 66.6652 27.812C66.2452 27.5693 65.7785 27.448 65.2652 27.448C64.7425 27.448 64.2712 27.5693 63.8512 27.812C63.4405 28.0453 63.1138 28.3813 62.8712 28.82C62.6378 29.2587 62.5212 29.758 62.5212 30.318C62.5212 30.878 62.6378 31.3773 62.8712 31.816C63.1138 32.2547 63.4405 32.5953 63.8512 32.838C64.2712 33.0713 64.7425 33.188 65.2652 33.188ZM77.1524 26.636L73.4704 34.882C73.1717 35.5727 72.8264 36.0627 72.4344 36.352C72.0424 36.6413 71.571 36.786 71.0204 36.786C70.6657 36.786 70.3344 36.73 70.0264 36.618C69.7184 36.506 69.4524 36.338 69.2284 36.114L69.6904 35.372C70.0637 35.7453 70.5117 35.932 71.0344 35.932C71.3704 35.932 71.655 35.8387 71.8884 35.652C72.131 35.4653 72.355 35.148 72.5604 34.7L72.8824 33.986L69.5924 26.636H70.6284L73.4004 32.894L76.1724 26.636H77.1524Z" fill="#A6A9AA"/>
</g>
<defs>
<clipPath id="clip0">
<rect width="156" height="45" fill="white" transform="translate(90)"/>
</clipPath>
</defs>
</svg>
