<svg width="31" height="30" viewBox="0 0 31 30" fill="none" xmlns="http://www.w3.org/2000/svg">
<path fill-rule="evenodd" clip-rule="evenodd" d="M15.5 29C23.232 29 29.5 22.732 29.5 15C29.5 7.26801 23.232 1 15.5 1C7.76801 1 1.5 7.26801 1.5 15C1.5 22.732 7.76801 29 15.5 29ZM15.5 30C23.7843 30 30.5 23.2843 30.5 15C30.5 6.71573 23.7843 0 15.5 0C7.21573 0 0.5 6.71573 0.5 15C0.5 23.2843 7.21573 30 15.5 30Z" fill="#A6A9AA"/>
<path d="M22.25 10.364C22.25 9.24093 21.2591 8.25 20.136 8.25H11.614C10.4909 8.25 9.5 9.24093 9.5 10.364V18.886C9.5 20.0091 10.4909 21 11.614 21H15.908V16.1775H14.3225V14.0635H15.908V13.2047C15.908 11.7513 16.965 10.4961 18.2863 10.4961H20.0039V12.6101H18.2863C18.0881 12.6101 17.8899 12.8083 17.8899 13.2047V14.0635H20.0039V16.1775H17.8899V21H20.136C21.2591 21 22.25 20.0091 22.25 18.886V10.364Z" fill="#A6A9AA"/>
</svg>
