<svg width="28" height="28" viewBox="0 0 28 28" fill="none" xmlns="http://www.w3.org/2000/svg">
    <path d="M27.9412 14.3971C27.7868 14.2353 27.6103 14.0882 27.4265 13.9632C27.0956 13.6985 26.6618 13.5956 26.25 13.6765C25.9412 13.7721 25.6103 13.5882 25.5147 13.2794C25.4191 12.9706 25.6029 12.6397 25.9118 12.5441C26.3897 12.4044 26.8971 12.4338 27.3676 12.6103C27.5735 12.6912 27.7721 12.7941 27.9559 12.9118C27.7941 10.7426 27.1176 8.63971 26 6.77941C25.7647 6.76471 25.5294 6.76471 25.2941 6.77941C24.7059 6.77941 24.25 6.93382 24.1765 7.09559C24.0515 7.39706 23.6985 7.52941 23.4044 7.40441C23.1103 7.27941 22.9706 6.92647 23.0956 6.63235C23.3824 6.10294 23.9118 5.75 24.5147 5.68382C24.7353 5.63235 24.9632 5.60294 25.1838 5.58088C24.0221 4.04412 22.5515 2.75735 20.875 1.80882C20.6765 1.91176 20.4632 2.02206 20.2868 2.13971C19.6544 2.51471 19.1103 2.96324 19.0294 3.22794C18.9632 3.5 18.7206 3.69118 18.4412 3.68382H18.3088C17.9926 3.61029 17.8015 3.29412 17.875 2.97794C18.0882 2.39706 18.4926 1.90441 19.0221 1.58088C19.2206 1.43382 19.4191 1.30147 19.6103 1.18382C17.8309 0.404412 15.9338 0 14.0147 0H13.5956C13.5735 0.0294118 13.5515 0.0588235 13.5294 0.0808824C13.3603 0.242647 13.2132 0.419118 13.0809 0.610294C12.8088 0.955882 12.6618 1.375 12.6471 1.81618C12.6471 2.13971 12.3824 2.40441 12.0588 2.40441C11.7353 2.40441 11.4706 2.13971 11.4706 1.81618C11.4632 1.46324 11.5221 1.11765 11.6471 0.794118C11.7353 0.566177 11.8456 0.345588 11.9779 0.139706C9.99265 0.433824 8.09559 1.14706 6.41912 2.24265C6.41912 2.24265 6.41912 2.24265 6.41912 2.28676C6.38235 2.52206 6.36029 2.76471 6.35294 3.00735C6.28677 3.45588 6.375 3.91912 6.60294 4.30882C6.84559 4.54412 6.85294 4.92647 6.625 5.16912C6.38971 5.41177 6.00735 5.41912 5.76471 5.19118C5.43382 4.84559 5.22794 4.39706 5.17647 3.91176C5.15441 3.66176 5.15441 3.41176 5.17647 3.16176C3.85294 4.24265 2.74265 5.55147 1.88971 7.02941C1.91176 7.08824 1.92647 7.15441 1.93382 7.22059C1.94853 7.47794 1.98529 7.72794 2.05147 7.97059C2.15441 8.5 2.44853 8.97059 2.86765 9.30147C3.14706 9.47794 3.23529 9.84559 3.05882 10.125C2.88235 10.4044 2.51471 10.4926 2.23529 10.3162C1.89706 10.0882 1.61029 9.79412 1.39706 9.44853C1.25735 9.21324 1.14706 8.97059 1.05882 8.71324C0.360294 10.3897 0.00735294 12.1912 0 14.0074V14.4485C0.0220588 14.4632 0.0514706 14.4853 0.0735294 14.5C0.242647 14.6618 0.419118 14.8162 0.617647 14.9485C1.02941 15.2647 1.52206 15.4559 2.04412 15.5C2.36765 15.5 2.63235 15.7647 2.63235 16.0882C2.63235 16.4118 2.36765 16.6765 2.04412 16.6765C1.63971 16.6471 1.23529 16.5515 0.867647 16.3824C0.639706 16.2868 0.419118 16.1691 0.213235 16.0368C0.492647 17.9338 1.15441 19.75 2.16912 21.375C2.21324 21.3676 2.25735 21.3676 2.30147 21.375C2.52941 21.4559 2.76471 21.5147 3 21.5515C3.38235 21.6397 3.77941 21.6029 4.13235 21.4338C4.39706 21.2426 4.76471 21.3015 4.95588 21.5662C5.14706 21.8309 5.08824 22.1985 4.82353 22.3897C4.80882 22.4044 4.78677 22.4118 4.77206 22.4265C4.50735 22.5882 4.22059 22.6912 3.91176 22.7353C3.75735 22.7647 3.59559 22.7721 3.44118 22.7794H3.16176C4.30882 24.2059 5.72794 25.3971 7.33088 26.2794C7.36765 26.2574 7.40441 26.2426 7.44853 26.2353C7.67647 26.1912 7.89706 26.1176 8.10294 26.0147C8.47059 25.875 8.77206 25.5882 8.94118 25.2353C9.04412 24.9265 9.375 24.7574 9.68382 24.8603C9.99265 24.9632 10.1618 25.2941 10.0588 25.6029C10.0588 25.6103 10.0515 25.625 10.0441 25.6324C9.91177 25.9926 9.68382 26.3235 9.38971 26.5735C9.21324 26.7279 9.01471 26.8603 8.80147 26.9706C10.4559 27.6471 12.2279 27.9926 14.0221 28V27.9559C14.1838 27.7794 14.3456 27.5882 14.4926 27.3676C14.7941 27.0294 15.0147 26.625 15.125 26.1912C15.0221 25.8897 15.1765 25.5588 15.4779 25.4485C15.7794 25.3382 16.1176 25.4926 16.2353 25.7941V25.8015C16.3456 26.2794 16.2574 26.7868 15.9853 27.1985C15.8676 27.4265 15.7279 27.6397 15.5809 27.8456C17.5882 27.625 19.5221 26.9706 21.25 25.9265C21.2647 25.6912 21.2647 25.4485 21.25 25.2132C21.2721 24.9044 21.2059 24.6029 21.0662 24.3309C20.7794 24.1765 20.6765 23.8235 20.8309 23.5368C20.9853 23.25 21.3456 23.1471 21.625 23.3015C22.0147 23.5588 22.2721 23.9706 22.3309 24.4338C22.375 24.6765 22.4044 24.9265 22.4044 25.1765C23.8824 24.0588 25.1324 22.6618 26.0662 21.0588C25.9779 20.8382 25.875 20.6176 25.7574 20.4118C25.5074 19.9559 25.2132 19.6029 25.0588 19.5882C24.7353 19.5441 24.5 19.25 24.5441 18.9265C24.5882 18.6029 24.8824 18.3676 25.2059 18.4118C25.6838 18.5 26.1029 18.7721 26.3824 19.1691C26.5294 19.3529 26.6544 19.5515 26.7721 19.7574C27.5294 18.0882 27.9412 16.2941 28 14.4632C27.9926 14.4485 27.9632 14.4191 27.9412 14.3971ZM14 20.6985C10.3015 20.6985 7.30882 17.6985 7.30882 14C7.30882 10.3015 10.3088 7.30882 14.0074 7.30882C17.6985 7.30882 20.6985 10.3088 20.6985 14C20.6985 17.7059 17.6985 20.6985 14 20.6985Z" fill="#001317"/>
    <path d="M17.8981 14.0051C17.8981 16.1445 16.1619 17.8789 14.0202 17.8789C11.8785 17.8789 10.1423 16.1445 10.1423 14.0051C10.1423 11.8656 11.8785 10.1312 14.0202 10.1312C16.1619 10.1312 17.8981 11.8656 17.8981 14.0051Z" fill="#001317"/>
</svg>
