<svg width="249" height="50" viewBox="0 0 249 50" fill="none" xmlns="http://www.w3.org/2000/svg">
<path d="M114.34 0L111.909 7.45798H100.76L94.7492 25.897H81.8109L87.8212 7.45798H72.3594L79.1957 0H114.34Z" fill="white"/>
<path d="M141.18 16.6089H121.452C120.809 16.6089 120.167 16.5174 119.525 16.3344C118.928 16.1513 118.378 15.8768 117.965 15.5565C117.552 15.1905 117.231 14.7787 117.047 14.2754C116.864 13.7721 116.864 13.1773 117.093 12.5825L121.176 0H134.069L131.087 9.19665H143.566L146.594 0H159.533L152.421 21.8249C152.192 22.4655 151.87 23.0145 151.366 23.5178C150.907 24.0211 150.311 24.4329 149.714 24.7989C149.072 25.165 148.429 25.3937 147.695 25.5768C146.961 25.7598 146.319 25.8513 145.631 25.8513H112.734L119.525 18.4391H140.584L141.18 16.6089Z" fill="white"/>
<path d="M208.396 25.897L216.792 0H249L242.21 7.45798H227.299L226.656 9.42542H241.017L234.685 16.5174H224.408L223.766 18.3933H240.42L233.63 25.8513H208.396V25.897Z" fill="white"/>
<path d="M8.44205 0L0 25.897H13.076L15.9665 17.0207L19.1322 25.897H31.7494L23.2156 0H8.44205Z" fill="white"/>
<path d="M42.8526 0L30.9236 11.3471H39.0445L34.1812 25.897H47.2113L55.6533 0H42.8526Z" fill="#FF3A24"/>
<path d="M207.386 2.10471C207.203 1.64716 206.927 1.23537 206.514 0.91509C206.102 0.594808 205.597 0.366036 205 0.228772C204.404 0.091509 203.762 0 203.165 0H169.213L162.423 7.45798H179.72H181.693H193.163L191.833 11.6674H181.739H178.39H165.451L160.817 25.8513H173.756L176.417 17.6612H177.518L186.74 25.8513H201.651L195.136 19.0796H196.971C197.614 19.0796 198.302 18.9881 198.99 18.8508C199.678 18.7136 200.321 18.4848 200.917 18.1645C201.513 17.8443 202.064 17.4325 202.523 16.9749C202.982 16.5174 203.349 15.9226 203.532 15.3278L207.294 3.79762C207.524 3.15706 207.57 2.60801 207.386 2.10471Z" fill="white"/>
<path d="M59.3696 18.9425L61.5718 12.2166H73.5926L71.4362 18.9425H59.3696Z" fill="white"/>
<path d="M72.4761 47.7302L74.1316 43.0864L70.3823 46.8772H69.2137L68.0938 43.2285L66.4382 47.7776H64.0036L67.1199 39.0112H69.3111L70.8205 44.0341L75.8358 38.9638H78.027L74.9594 47.6828L72.4761 47.7302Z" fill="white"/>
<path d="M87.7653 42.4704C88.2036 42.9442 88.3009 43.655 87.9601 44.6027C87.6192 45.5978 86.9862 46.356 86.1098 46.9246C85.2333 47.4459 84.1621 47.7302 82.9448 47.7302H78.5138L81.6301 39.0112H84.2595L83.2856 41.807H85.4281C86.4993 41.7596 87.2784 41.9965 87.7653 42.4704ZM84.5029 45.5978C84.8438 45.3609 85.0872 45.0766 85.2333 44.6501C85.5255 43.8919 85.1359 43.5128 84.1621 43.5128H82.5066L81.6301 45.9295H83.2856C83.7726 45.9295 84.1621 45.8347 84.5029 45.5978ZM90.979 38.9638H93.6084L90.4921 47.6828H87.8627L90.979 38.9638Z" fill="white"/>
<path d="M99.9872 47.256C99.3542 46.8769 98.916 46.3557 98.7212 45.6449C98.5264 44.9341 98.5751 44.1759 98.8673 43.323C99.1594 42.4701 99.695 41.6645 100.377 41.0011C101.058 40.2903 101.886 39.7691 102.811 39.39C103.737 39.0109 104.662 38.8214 105.636 38.8214C106.512 38.8214 107.194 38.9635 107.778 39.2478C108.362 39.5321 108.801 39.9112 109.044 40.4799L106.853 41.9014C106.512 41.238 105.879 40.9063 105.003 40.9063C104.516 40.9063 104.029 41.0011 103.542 41.238C103.055 41.4276 102.665 41.7593 102.324 42.1384C101.984 42.5174 101.691 42.9439 101.545 43.4178C101.351 43.8916 101.302 44.3181 101.399 44.6972C101.497 45.0763 101.691 45.3606 102.032 45.5501C102.373 45.7397 102.763 45.8818 103.298 45.8344C104.175 45.8344 105.003 45.5027 105.879 44.792L107.048 46.2135C106.415 46.7348 105.684 47.1612 104.905 47.4456C104.126 47.7299 103.298 47.872 102.422 47.872C101.448 47.8246 100.62 47.6351 99.9872 47.256Z" fill="white"/>
<path d="M118.734 39.2952C119.269 39.5322 119.61 39.9112 119.756 40.4325C119.902 40.9063 119.902 41.475 119.659 42.1384C119.415 42.8018 119.075 43.3704 118.539 43.8443C118.052 44.3181 117.419 44.6972 116.689 44.9815C115.958 45.2658 115.179 45.3606 114.351 45.3606H112.696L111.868 47.6351H109.239L112.355 38.9161H116.64C117.516 38.9161 118.198 39.0583 118.734 39.2952ZM116.25 43.0861C116.591 42.8492 116.835 42.5648 116.981 42.1384C117.127 41.7119 117.078 41.4276 116.883 41.1907C116.689 40.9537 116.299 40.859 115.763 40.859H114.303L113.378 43.4178H114.838C115.423 43.4178 115.91 43.2756 116.25 43.0861Z" fill="white"/>
<path d="M128.667 45.6923L127.985 47.5877L120.487 47.6351L123.603 38.9161H130.955L130.274 40.8116H125.551L125.015 42.2805H129.154L128.521 44.1286H124.382L123.798 45.7397L128.667 45.6923Z" fill="white"/>
<path d="M141.814 45.5978L140.499 49.2939H138.065L138.698 47.5406H132.708L132.075 49.2939H129.641L130.955 45.5978H131.296C131.832 45.5978 132.368 45.2187 132.854 44.5553C133.341 43.8445 133.828 42.8494 134.364 41.57L135.435 38.869H142.982L140.597 45.5978H141.814ZM135.484 44.1288C135.143 44.7922 134.753 45.2661 134.364 45.5978H137.918L139.623 40.8118H136.945L136.555 41.7596C136.214 42.7073 135.825 43.4654 135.484 44.1288Z" fill="white"/>
<path d="M147.024 38.8687H149.653L147.852 43.939L153.5 38.8214H155.983L152.867 47.4929H150.238L152.039 42.4227L146.391 47.4929H143.908L147.024 38.8687Z" fill="white"/>
<path d="M172.42 38.6794L169.385 47.3169H166.825L169.148 40.6146H165.687L163.364 47.3169H160.804L163.838 38.6794H172.42Z" fill="white"/>
<path d="M181.708 45.3711L181.015 47.2695L173.388 47.3169L176.557 38.6794H184.036L183.342 40.5777H178.538L177.994 42.049H182.203L181.56 43.8999H177.35L176.756 45.466L181.708 45.3711Z" fill="white"/>
<path d="M193.558 39.0591C194.096 39.2964 194.437 39.676 194.584 40.1506C194.73 40.6252 194.73 41.1947 194.486 41.8591C194.242 42.5236 193.9 43.0931 193.363 43.5677C192.826 44.0423 192.24 44.4219 191.507 44.6592C190.775 44.944 189.994 45.0389 189.163 45.0389H187.503L186.673 47.3169H184.036L187.161 38.6794H191.459C192.338 38.6794 193.021 38.7743 193.558 39.0591ZM191.068 42.8083C191.41 42.571 191.654 42.2863 191.8 41.8591C191.947 41.4795 191.898 41.1473 191.703 40.91C191.507 40.6727 191.117 40.5777 190.58 40.5777H189.115L188.187 43.0931H189.652C190.287 43.1405 190.726 42.9982 191.068 42.8083Z" fill="white"/>
<path d="M204.264 43.5677C204.412 43.8999 204.412 44.327 204.214 44.8491C203.918 45.6084 203.375 46.2254 202.585 46.6525C201.745 47.0796 200.758 47.3169 199.572 47.3169H194.684L197.844 38.6794H202.436C203.572 38.6794 204.412 38.8692 204.856 39.2489C205.35 39.6286 205.449 40.1981 205.202 40.91C205.054 41.3371 204.807 41.7168 204.461 42.0015C204.115 42.3337 203.72 42.571 203.227 42.7609C203.77 42.9507 204.115 43.2355 204.264 43.5677ZM199.276 42.1439H201.004C201.745 42.1439 202.239 41.8591 202.436 41.2896C202.634 40.7201 202.387 40.4354 201.597 40.4354H199.869L199.276 42.1439ZM201.597 44.6592C201.795 44.0897 201.548 43.805 200.758 43.805H198.634L197.992 45.561H200.116C200.906 45.561 201.4 45.2762 201.597 44.6592Z" fill="white"/>
<path d="M216.167 42.1439C216.589 42.6185 216.683 43.3304 216.355 44.2321C216.027 45.2287 215.418 45.9881 214.575 46.5101C213.732 47.0322 212.701 47.3169 211.53 47.3169H207.268L210.266 38.6794H212.795L211.858 41.432H213.966C214.95 41.4795 215.746 41.6693 216.167 42.1439ZM213.076 45.2287C213.404 44.9914 213.638 44.7067 213.779 44.2796C214.06 43.5202 213.685 43.1405 212.748 43.1405H211.156L210.312 45.5135H211.905C212.373 45.6084 212.748 45.466 213.076 45.2287ZM219.259 38.6794H221.788L218.79 47.3169H216.261L219.259 38.6794Z" fill="white"/>
<path d="M228.104 38.6794L228.917 41.0049L231.358 38.6794H234.372L229.874 42.8083L231.549 47.3169H228.487L227.53 44.7541L224.802 47.3169H221.788L226.621 42.9032L225.042 38.6794H228.104Z" fill="white"/>
</svg>
