<svg width="51" height="31" viewBox="0 0 51 31" fill="none" xmlns="http://www.w3.org/2000/svg">
<path d="M25.7558 26.8242C28.7985 24.0217 30.7203 20.0181 30.7203 15.6141C30.7203 11.1301 28.7985 7.12646 25.7558 4.40401C23.0333 2.00184 19.5102 0.480469 15.5866 0.480469C7.17905 0.480469 0.372913 7.28661 0.372913 15.6141C0.372913 24.0217 7.17905 30.8278 15.5866 30.8278C19.5102 30.7478 23.0333 29.2264 25.7558 26.8242Z" fill="#3362AB"/>
<path d="M25.7558 26.8243C28.7986 24.0217 30.7203 20.0181 30.7203 15.6142C30.7203 11.1301 28.7986 7.12651 25.7558 4.40405" fill="#3362AB"/>
<path d="M25.7558 26.8243C28.7986 24.0217 30.7203 20.0181 30.7203 15.6142C30.7203 11.1301 28.7986 7.12651 25.7558 4.40405" stroke="#3362AB" stroke-width="0.247984"/>
<path d="M35.925 0.400391C32.0015 0.400391 28.3982 1.92176 25.7558 4.32392C25.1953 4.80436 24.7149 5.36486 24.2345 5.92537H27.2772C27.6776 6.4058 28.0779 6.9663 28.3982 7.52681H23.0334C22.7131 8.00724 22.3928 8.56775 22.1526 9.12825H29.279C29.5192 9.68876 29.7594 10.1692 29.9196 10.7297H21.512C21.3519 11.2902 21.1917 11.7706 21.0316 12.3311H30.32C30.5602 13.3721 30.6402 14.413 30.6402 15.534C30.6402 17.2155 30.4 18.817 29.8395 20.3384H21.4319C21.5921 20.8989 21.8323 21.4594 22.0725 21.9398H29.1989C28.9587 22.5003 28.6384 23.0608 28.3181 23.5412H22.9533C23.2736 24.1018 23.6739 24.6623 24.0743 25.1427H27.1171C26.6366 25.7032 26.1562 26.2637 25.5957 26.7441C28.3181 29.1463 31.8413 30.6677 35.7648 30.6677C44.1724 30.6677 50.8985 23.8615 50.8985 15.454C51.1387 7.20653 44.3326 0.400391 35.925 0.400391Z" fill="#C9191B"/>
<path d="M13.6649 19.2974H11.7432L12.8642 13.3721L10.3019 19.2974H8.6204L8.30012 13.4521L7.17909 19.2974H5.49759L6.93888 11.6105H9.90156L10.0617 16.4148L12.1436 11.6105H15.1863L13.6649 19.2974Z" fill="white"/>
<path d="M34.804 19.2974C34.3235 19.4576 33.8431 19.5376 33.4427 19.5376C32.4819 19.5376 31.9214 19.0572 31.9214 18.1764C31.9214 18.0163 31.9214 17.776 32.0014 17.6159L32.0815 16.9753L32.1616 16.4949L33.0424 11.6906H34.884L34.6438 13.1319H35.6047L35.3645 14.6532H34.4036L33.9232 17.2956C33.9232 17.3757 33.9232 17.5358 33.9232 17.5358C33.9232 17.8561 34.1634 18.0163 34.5638 18.0163C34.804 18.0163 34.9641 18.0163 35.0442 17.9362L34.804 19.2974Z" fill="white"/>
<path d="M40.2488 13.1318C40.0887 13.0518 40.0887 13.0518 40.0086 13.0518C39.9285 13.0518 39.8485 13.0518 39.8485 13.0518C39.7684 13.0518 39.6883 13.0518 39.6083 13.0518C38.9677 13.0518 38.5673 13.292 37.9268 14.0927L38.0869 13.1318H36.5655L35.4445 19.3775H37.3662C38.0068 15.534 38.3271 14.8934 39.2079 14.8934C39.288 14.8934 39.3681 14.8934 39.4481 14.8934L39.6883 14.9735L40.2488 13.1318Z" fill="white"/>
<path d="M27.2772 15.0537C27.2772 15.8544 27.7576 16.4149 28.7185 16.8153C29.5192 17.1356 29.5993 17.2156 29.5993 17.5359C29.5993 17.9363 29.279 18.0964 28.4783 18.0964C27.9177 18.0964 27.3572 18.0164 26.7967 17.8562L26.5565 19.2975H26.6366L26.9569 19.3776C27.037 19.3776 27.2772 19.4577 27.4373 19.4577C27.9178 19.4577 28.238 19.5377 28.4783 19.5377C30.4801 19.5377 31.4409 18.8971 31.4409 17.4558C31.4409 16.5751 31.0406 16.0946 30.0797 15.6943C29.279 15.374 29.1989 15.2939 29.1989 14.9736C29.1989 14.6533 29.5192 14.4932 30.1598 14.4932C30.5601 14.4932 31.0406 14.4932 31.521 14.5732L31.7612 13.1319C31.2808 13.0519 30.5601 12.9718 30.0797 12.9718C27.9978 12.9718 27.2772 13.9327 27.2772 15.0537Z" fill="white"/>
<path d="M18.4692 16.575C18.229 16.575 18.1489 16.575 18.0689 16.575C17.0279 16.575 16.4674 16.8953 16.4674 17.5359C16.4674 17.9363 16.7076 18.1765 17.108 18.1765C17.8287 18.0964 18.3891 17.4558 18.4692 16.575ZM19.8305 19.2975H18.229L18.3091 18.6569C17.8287 19.1374 17.1881 19.3776 16.3073 19.3776C15.2663 19.3776 14.6258 18.6569 14.6258 17.6961C14.6258 16.1747 15.8268 15.2939 17.9087 15.2939C18.1489 15.2939 18.3892 15.2939 18.7094 15.374C18.7895 15.1338 18.7895 15.0537 18.7895 14.9736C18.7895 14.5732 18.4692 14.4131 17.5884 14.4131C17.0279 14.4131 16.4674 14.4932 16.0671 14.5732L15.8268 14.6533L15.6667 14.7334L15.9069 13.2921C16.8678 13.0519 17.4283 12.9718 18.1489 12.9718C19.7504 12.9718 20.6312 13.6124 20.6312 14.8135C20.6312 15.1338 20.6312 15.374 20.471 16.0145L20.0707 18.2566L19.9906 18.6569L19.9105 18.9772V19.2174L19.8305 19.2975Z" fill="white"/>
<path d="M25.0352 15.4539C25.0352 15.2938 25.0352 15.2137 25.0352 15.1336C25.0352 14.6532 24.7149 14.3329 24.1544 14.3329C23.5138 14.3329 23.1134 14.7333 22.9533 15.4539H25.0352ZM25.996 19.2173C25.3554 19.3775 24.7149 19.4575 24.0743 19.4575C21.9924 19.4575 20.8714 18.4967 20.8714 16.655C20.8714 14.4931 22.2326 12.8916 24.1544 12.8916C25.6757 12.8916 26.7167 13.7724 26.7167 15.1336C26.7167 15.6141 26.6366 16.0144 26.4765 16.655H22.7131C22.7131 16.7351 22.7131 16.8151 22.7131 16.8151C22.7131 17.5358 23.2736 17.9362 24.3946 17.9362C25.0352 17.9362 25.6757 17.776 26.3964 17.5358L25.996 19.2173Z" fill="white"/>
<path d="M44.1724 15.6943C44.1724 15.0537 43.9322 14.4131 43.1315 14.4131C42.1706 14.4131 41.6101 15.5341 41.6101 16.575C41.6101 17.4558 42.0105 18.0164 42.7311 18.0164C43.1315 18.0164 44.0123 17.4558 44.1724 16.495C44.1724 16.2548 44.1724 15.9345 44.1724 15.6943ZM46.1742 16.495C45.8539 18.5768 44.4126 19.5377 42.4909 19.5377C40.3289 19.5377 39.5282 18.2566 39.5282 16.6551C39.5282 14.4131 40.9695 12.9718 43.2115 12.9718C45.2133 12.9718 46.1742 14.1729 46.1742 15.7743C46.2543 16.0946 46.2543 16.0946 46.1742 16.495Z" fill="white"/>
</svg>
