<svg width="53" height="32" viewBox="0 0 53 32" fill="none" xmlns="http://www.w3.org/2000/svg">
<path d="M52.047 15.6141C52.047 24.1818 45.0807 31.2282 36.4329 31.2282C27.8652 31.2282 20.8188 24.1818 20.8188 15.6141C20.8188 7.04635 27.7851 0 36.3528 0C45.0807 0 52.047 7.04635 52.047 15.6141Z" fill="#F9B50B"/>
<path d="M31.1481 15.6941C31.1481 14.5731 30.9879 13.4521 30.8278 12.4112H21.2191C21.2992 11.8507 21.4593 11.3702 21.6195 10.7297H30.1872C30.0271 10.1692 29.7869 9.60866 29.5466 9.04816H22.2601C22.5003 8.48765 22.8206 8.00722 23.1409 7.36664H28.6658C28.3456 6.80614 27.9452 6.24563 27.4648 5.68512H24.422C24.9024 5.12462 25.3829 4.64419 26.0235 4.08368C23.301 1.52137 19.6177 0 15.534 0C7.04635 0.240217 0 7.04635 0 15.6141C0 24.1818 6.96628 31.2282 15.6141 31.2282C19.6978 31.2282 23.301 29.6267 26.1035 27.1445C26.664 26.664 27.1445 26.1035 27.705 25.463H24.5021C24.1017 24.9825 23.7014 24.422 23.3811 23.8615H28.826C29.1463 23.3811 29.4666 22.8206 29.7068 22.18H22.4202C22.18 21.6996 21.9398 21.1391 21.7796 20.4985H30.3474C30.8278 19.0572 31.1481 17.4557 31.1481 15.6941Z" fill="#C8191C"/>
<path d="M21.1391 19.6177L21.3793 18.1764C21.2992 18.1764 21.1391 18.2565 20.9789 18.2565C20.4184 18.2565 20.3384 17.9362 20.4184 17.7761L20.8989 14.8935H21.7797L22.0199 13.292H21.2192L21.3793 12.3312H19.6978C19.6978 12.3312 18.7369 17.7761 18.7369 18.4167C18.7369 19.3775 19.2974 19.858 20.0982 19.858C20.5786 19.858 20.9789 19.6978 21.1391 19.6177Z" fill="white"/>
<path d="M21.6996 16.9753C21.6996 19.2974 23.3011 19.8579 24.5822 19.8579C25.7833 19.8579 26.3438 19.6177 26.3438 19.6177L26.6641 18.0163C26.6641 18.0163 25.7833 18.4166 24.9025 18.4166C23.0608 18.4166 23.3811 17.0554 23.3811 17.0554H26.7442C26.7442 17.0554 26.9844 16.0144 26.9844 15.534C26.9844 14.4931 26.4239 13.1319 24.5822 13.1319C22.9808 13.0518 21.6996 14.8934 21.6996 16.9753ZM24.5822 14.5732C25.463 14.5732 25.3029 15.6141 25.3029 15.6942H23.4612C23.5413 15.6141 23.7014 14.5732 24.5822 14.5732Z" fill="white"/>
<path d="M35.0716 19.6177L35.3919 17.776C35.3919 17.776 34.5912 18.1764 33.9506 18.1764C32.8296 18.1764 32.2691 17.2956 32.2691 16.2547C32.2691 14.2528 33.23 13.2119 34.4311 13.2119C35.2318 13.2119 35.9524 13.6923 35.9524 13.6923L36.1926 11.9308C36.1926 11.9308 35.2318 11.5304 34.2709 11.5304C32.3492 11.5304 30.5075 13.2119 30.5075 16.3347C30.5075 18.4166 31.4684 19.7778 33.4702 19.7778C34.1908 19.8579 35.0716 19.6177 35.0716 19.6177Z" fill="white"/>
<path d="M12.091 13.0518C10.97 13.0518 10.0892 13.3721 10.0892 13.3721L9.84894 14.8134C9.84894 14.8134 10.5696 14.4931 11.6906 14.4931C12.2511 14.4931 12.7315 14.5732 12.7315 15.0536C12.7315 15.3739 12.6515 15.454 12.6515 15.454H11.9308C10.4895 15.454 8.96815 16.0145 8.96815 17.9362C8.96815 19.4576 9.92901 19.7779 10.5696 19.7779C11.6906 19.7779 12.2511 19.0572 12.3312 19.0572L12.2511 19.6978H13.6123L14.2529 15.1337C14.2529 13.1319 12.6515 13.0518 12.091 13.0518ZM12.4113 16.7351C12.4113 16.9754 12.2511 18.3366 11.2902 18.3366C10.8098 18.3366 10.6497 17.9362 10.6497 17.696C10.6497 17.2956 10.8899 16.7351 12.171 16.7351C12.3312 16.7351 12.4113 16.7351 12.4113 16.7351Z" fill="white"/>
<path d="M15.8543 19.7779C16.2547 19.7779 18.3365 19.8579 18.3365 17.6159C18.3365 15.5341 16.3347 15.9344 16.3347 15.1337C16.3347 14.7333 16.655 14.5732 17.2155 14.5732C17.4557 14.5732 18.3365 14.6533 18.3365 14.6533L18.5768 13.1319C18.5768 13.1319 18.0163 12.9717 16.9753 12.9717C15.7742 12.9717 14.4931 13.4522 14.4931 15.1337C14.4931 17.0554 16.575 16.8953 16.575 17.6159C16.575 18.0964 16.0145 18.1764 15.6141 18.1764C14.8934 18.1764 14.0927 17.9362 14.0927 17.9362L13.8525 19.4576C14.0126 19.6177 14.4931 19.7779 15.8543 19.7779Z" fill="white"/>
<path d="M48.8441 11.7707L48.5238 14.0127C48.5238 14.0127 47.8832 13.212 46.9224 13.212C45.401 13.212 44.1198 15.0537 44.1198 17.2156C44.1198 18.5768 44.7604 19.9381 46.2017 19.9381C47.1626 19.9381 47.8032 19.2975 47.8032 19.2975L47.7231 19.858H49.4046L50.6057 11.9308L48.8441 11.7707ZM48.0434 16.0946C48.0434 16.9754 47.643 18.1765 46.6821 18.1765C46.1216 18.1765 45.8014 17.696 45.8014 16.8152C45.8014 15.454 46.3619 14.6533 47.1626 14.6533C47.7231 14.7334 48.0434 15.1337 48.0434 16.0946Z" fill="white"/>
<path d="M3.04282 19.6978L4.00369 13.7725L4.16383 19.6978H5.28484L7.44679 13.7725L6.566 19.6978H8.32758L9.68881 11.7707H6.96636L5.28484 16.6551L5.20477 11.7707H2.8026L1.44138 19.6978H3.04282Z" fill="white"/>
<path d="M28.6659 19.6978C29.1463 16.9754 29.2264 14.7333 30.4275 15.1337C30.5876 14.0928 30.8278 13.6123 30.988 13.212H30.6677C29.947 13.212 29.3064 14.1728 29.3064 14.1728L29.4666 13.292H27.8651L26.8242 19.6978H28.6659Z" fill="white"/>
<path d="M38.9151 13.0518C37.7941 13.0518 36.9133 13.3721 36.9133 13.3721L36.6731 14.8134C36.6731 14.8134 37.3937 14.4931 38.5147 14.4931C39.0752 14.4931 39.5557 14.5732 39.5557 15.0536C39.5557 15.3739 39.4756 15.454 39.4756 15.454H38.755C37.3137 15.454 35.7923 16.0145 35.7923 17.9362C35.7923 19.4576 36.7532 19.7779 37.3937 19.7779C38.5147 19.7779 39.0752 19.0572 39.1553 19.0572L39.0752 19.6978H40.5966L41.2372 15.1337C41.2372 13.1319 39.4756 13.0518 38.9151 13.0518ZM39.3155 16.7351C39.3155 16.9754 39.1553 18.3366 38.1945 18.3366C37.714 18.3366 37.5539 17.9362 37.5539 17.696C37.5539 17.2956 37.7941 16.7351 39.0752 16.7351C39.2354 16.7351 39.2354 16.7351 39.3155 16.7351Z" fill="white"/>
<path d="M42.5184 19.6978C42.9988 16.9754 43.0789 14.7333 44.28 15.1337C44.4401 14.0928 44.6803 13.6123 44.8405 13.212H44.5202C43.7995 13.212 43.159 14.1728 43.159 14.1728L43.3191 13.292H41.7176L40.6767 19.6978H42.5184Z" fill="white"/>
</svg>
