<svg width="51" height="51" viewBox="0 0 51 51" fill="none" xmlns="http://www.w3.org/2000/svg">
<path fill-rule="evenodd" clip-rule="evenodd" d="M17.5 25.9999C17.5 25.7181 17.6119 25.4478 17.8112 25.2486C18.0105 25.0493 18.2807 24.9374 18.5625 24.9374H30.8726L26.3102 20.3771C26.1107 20.1776 25.9987 19.907 25.9987 19.6249C25.9987 19.3427 26.1107 19.0721 26.3102 18.8726C26.5098 18.6731 26.7804 18.561 27.0625 18.561C27.3446 18.561 27.6152 18.6731 27.8148 18.8726L34.1898 25.2476C34.2887 25.3463 34.3672 25.4636 34.4208 25.5927C34.4743 25.7217 34.5019 25.8601 34.5019 25.9999C34.5019 26.1396 34.4743 26.278 34.4208 26.4071C34.3672 26.5362 34.2887 26.6534 34.1898 26.7521L27.8148 33.1271C27.6152 33.3266 27.3446 33.4387 27.0625 33.4387C26.7804 33.4387 26.5098 33.3266 26.3102 33.1271C26.1107 32.9276 25.9987 32.657 25.9987 32.3749C25.9987 32.0927 26.1107 31.8221 26.3102 31.6226L30.8726 27.0624H18.5625C18.2807 27.0624 18.0105 26.9504 17.8112 26.7512C17.6119 26.5519 17.5 26.2817 17.5 25.9999Z" fill="#A6A9AA"/>
</svg>
