<svg width="51" height="51" viewBox="0 0 51 51" fill="none" xmlns="http://www.w3.org/2000/svg">
<path fill-rule="evenodd" clip-rule="evenodd" d="M34.3281 25.4735C34.3281 25.7553 34.2162 26.0256 34.0169 26.2248C33.8177 26.4241 33.5474 26.536 33.2656 26.536L20.9555 26.536L25.5179 31.0963C25.7174 31.2958 25.8295 31.5664 25.8295 31.8485C25.8295 32.1307 25.7174 32.4013 25.5179 32.6008C25.3184 32.8003 25.0478 32.9124 24.7656 32.9124C24.4835 32.9124 24.2129 32.8003 24.0134 32.6008L17.6384 26.2258C17.5394 26.1271 17.4609 26.0098 17.4074 25.8807C17.3538 25.7516 17.3262 25.6133 17.3262 25.4735C17.3262 25.3338 17.3538 25.1954 17.4074 25.0663C17.4609 24.9372 17.5394 24.82 17.6384 24.7213L24.0134 18.3463C24.2129 18.1468 24.4835 18.0347 24.7656 18.0347C25.0478 18.0347 25.3184 18.1468 25.5179 18.3463C25.7174 18.5458 25.8295 18.8164 25.8295 19.0985C25.8295 19.3807 25.7174 19.6513 25.5179 19.8508L20.9555 24.411L33.2656 24.411C33.5474 24.411 33.8177 24.523 34.0169 24.7222C34.2162 24.9215 34.3281 25.1917 34.3281 25.4735Z" fill="#A6A9AA"/>
</svg>
