<svg width="21" height="21" viewBox="0 0 21 21" fill="none" xmlns="http://www.w3.org/2000/svg">
<path d="M6.70049 6.36222L6.96219 6.32319L7.07712 6.08487L9.57113 0.91318C9.57116 0.913118 9.57119 0.913056 9.57122 0.912994C9.8374 0.36196 10.5957 0.362552 10.8631 0.913506C10.8632 0.913639 10.8632 0.913773 10.8633 0.913907L13.3569 6.08487L13.4719 6.32319L13.7336 6.36222L19.3138 7.19425L19.3142 7.1943C19.8922 7.28005 20.1564 8.03446 19.7107 8.47823L19.7106 8.47837L15.6735 12.5018L15.4905 12.6841L15.5333 12.9388L16.4881 18.6221C16.5946 19.2585 15.949 19.6862 15.4459 19.4156L15.4458 19.4156L10.4538 16.732L10.217 16.6047L9.98028 16.732L4.98827 19.4156L4.98669 19.4164C4.48701 19.6874 3.83893 19.2617 3.94594 18.6221L4.90075 12.9388L4.94353 12.6841L4.76061 12.5018L0.723456 8.47837L0.723315 8.47823C0.277674 8.03446 0.54182 7.28005 1.11991 7.1943L1.12028 7.19425L6.70049 6.36222Z" stroke="#808384"/>
</svg>
