<svg width="30" height="30" viewBox="0 0 30 30" fill="none" xmlns="http://www.w3.org/2000/svg">
<path fill-rule="evenodd" clip-rule="evenodd" d="M15 29C22.732 29 29 22.732 29 15C29 7.26801 22.732 1 15 1C7.26801 1 1 7.26801 1 15C1 22.732 7.26801 29 15 29ZM15 30C23.2843 30 30 23.2843 30 15C30 6.71573 23.2843 0 15 0C6.71573 0 0 6.71573 0 15C0 23.2843 6.71573 30 15 30Z" fill="#A6A9AA"/>
<path d="M7.01303 15.2806L10.4616 16.5665L11.8059 20.8918C11.8644 21.184 12.2151 21.2425 12.4489 21.0671L14.3778 19.489C14.5531 19.3136 14.8454 19.3136 15.0792 19.489L18.5277 22.0023C18.7615 22.1777 19.1122 22.0608 19.1707 21.7685L21.7425 9.49399C21.8009 9.20174 21.5087 8.90949 21.2164 9.02639L7.01303 14.5207C6.66232 14.6376 6.66232 15.1637 7.01303 15.2806ZM11.6306 15.9235L18.4108 11.7735C18.5277 11.7151 18.6446 11.8905 18.5277 11.9489L12.975 17.151C12.7996 17.3263 12.6242 17.5601 12.6242 17.8524L12.4489 19.2552C12.4489 19.4305 12.1566 19.489 12.0982 19.2552L11.3968 16.6834C11.2214 16.3911 11.3384 16.0404 11.6306 15.9235Z" fill="#A6A9AA"/>
</svg>
