<svg width="31" height="30" viewBox="0 0 31 30" fill="none" xmlns="http://www.w3.org/2000/svg">
<path fill-rule="evenodd" clip-rule="evenodd" d="M15.5 29C23.232 29 29.5 22.732 29.5 15C29.5 7.26801 23.232 1 15.5 1C7.76801 1 1.5 7.26801 1.5 15C1.5 22.732 7.76801 29 15.5 29ZM15.5 30C23.7843 30 30.5 23.2843 30.5 15C30.5 6.71573 23.7843 0 15.5 0C7.21573 0 0.5 6.71573 0.5 15C0.5 23.2843 7.21573 30 15.5 30Z" fill="#A6A9AA"/>
<path d="M23.45 11.175C22.925 11.4 22.325 11.55 21.725 11.625C22.325 11.25 22.85 10.65 23.075 9.975C22.475 10.35 21.875 10.575 21.125 10.725C20.6 10.125 19.775 9.75 18.95 9.75C17.3 9.75 15.95 11.1 15.95 12.75C15.95 12.975 15.95 13.2 16.025 13.425C13.55 13.275 11.3 12.075 9.8 10.275C9.575 10.725 9.425 11.25 9.425 11.775C9.425 12.825 9.95 13.725 10.775 14.25C10.25 14.25 9.8 14.1 9.425 13.875C9.425 15.3 10.475 16.575 11.825 16.8C11.6 16.875 11.3 16.875 11 16.875C10.775 16.875 10.625 16.875 10.4 16.8C10.775 18 11.9 18.9 13.25 18.9C12.2 19.725 10.925 20.175 9.5 20.175C9.275 20.175 9.05 20.175 8.75 20.1C10.1 20.925 11.675 21.45 13.4 21.45C18.95 21.45 21.95 16.875 21.95 12.9V12.525C22.55 12.3 23.075 11.775 23.45 11.175Z" fill="#A6A9AA"/>
</svg>
