<svg width="55" height="18" viewBox="0 0 55 18" fill="none" xmlns="http://www.w3.org/2000/svg">
<path d="M51.3166 0.446716H47.8735C46.8326 0.446716 46.0319 0.767005 45.5514 1.80794L38.9855 16.7814H43.6297C43.6297 16.7814 44.4304 14.7796 44.5906 14.2992C45.071 14.2992 49.6351 14.2992 50.2757 14.2992C50.4358 14.8597 50.8362 16.7014 50.8362 16.7014H55L51.3166 0.446716ZM45.8717 10.9362C46.2721 9.97531 47.6333 6.37206 47.6333 6.37206C47.6333 6.45213 48.0337 5.41119 48.1938 4.85069L48.5141 6.29199C48.5141 6.29199 49.3949 10.2155 49.5551 11.0162H45.8717V10.9362Z" fill="#3362AB"/>
<path d="M39.3058 11.4166C39.3058 14.7796 36.2631 17.0216 31.5388 17.0216C29.537 17.0216 27.6153 16.6213 26.5743 16.1408L27.2149 12.4575L27.7754 12.6977C29.2167 13.3383 30.1776 13.5785 31.9392 13.5785C33.2203 13.5785 34.5815 13.0981 34.5815 11.9771C34.5815 11.2564 34.021 10.776 32.2594 9.97529C30.5779 9.17457 28.3359 7.89341 28.3359 5.57132C28.3359 2.36843 31.4587 0.206482 35.8627 0.206482C37.5442 0.206482 38.9855 0.526771 39.8663 0.927132L39.2257 4.45031L38.9054 4.13002C38.1047 3.80973 37.0638 3.48944 35.5424 3.48944C33.8609 3.56951 33.0602 4.29016 33.0602 4.93074C33.0602 5.65139 34.021 6.2119 35.5424 6.93255C38.1047 8.13363 39.3058 9.49485 39.3058 11.4166Z" fill="#3362AB"/>
<path d="M0.230587 0.606788L0.310659 0.286499H7.19687C8.15773 0.286499 8.87838 0.606788 9.1186 1.64773L10.64 8.85422C9.1186 5.01076 5.59542 1.88794 0.230587 0.606788Z" fill="#F9B50B"/>
<path d="M20.3287 0.446649L13.3624 16.7013H8.63819L4.63458 3.08903C7.51718 4.93069 9.91934 7.81329 10.8001 9.81509L11.2806 11.4966L15.6045 0.366577H20.3287V0.446649Z" fill="#3362AB"/>
<path d="M22.1704 0.366577H26.5744L23.7718 16.7013H19.3679L22.1704 0.366577Z" fill="#3362AB"/>
</svg>
